<svg aria-hidden="true" style="position:absolute;width:0;height:0;overflow:hidden" xmlns="http://www.w3.org/2000/svg">
	<defs>
		<symbol id="icon-antenna" viewBox="0 0 32 32">
			<path fill="#212121" style="fill:var(--color1, #212121)"
				d="m30.773 22.098-8.443-8.505.937-4.616c.225.09.485.144.758.146h.033c1.192 0 2.159-.967 2.159-2.159s-.967-2.159-2.159-2.159c-1.192 0-2.159.967-2.159 2.159 0 .259.046.508.13.739l-.005-.015-4.96.606L8.973.161a.53.53 0 0 0-.376-.16.5362.5362 0 0 0-.373.155L6.712 1.66c-.096.097-.156.23-.156.377s.06.281.156.377l.814.825C6.383 5.301 5.71 7.761 5.71 10.378c0 4.106 1.656 7.824 4.336 10.525l-.001-.001c.043.041.092.074.146.097a2.986 2.986 0 0 0-.052.546v6.188h-6.4c-1.472.001-2.666 1.194-2.667 2.666v1.067c0 .295.239.534.534.534H26.14c.294 0 .533-.239.533-.534v-1.067c-.002-1.472-1.195-2.665-2.666-2.666h-6.4v-2.742c1.003.21 2.024.317 3.049.32 2.58-.003 5.005-.663 7.117-1.822l-.077.039.818.823c.099.101.235.159.376.16.14-.001.274-.057.373-.155l1.512-1.504c.096-.097.156-.23.156-.377s-.06-.281-.156-.377zM23.28 6.233c.193-.192.459-.31.752-.31.589 0 1.067.478 1.067 1.066s-.477 1.066-1.067 1.066h-.004c-.587-.003-1.061-.479-1.061-1.066 0-.295.12-.563.314-.756h-.002zm-1.256 3.504-.598 2.946-1.175-1.183 1.774-1.763zm-.605-.902-1.92 1.909-1.486-1.493 3.406-.416zM24.004 28.8c.884 0 1.6.716 1.6 1.6v.534H2.138V30.4c0-.884.716-1.6 1.6-1.6h20.267zm-7.466-2.134v1.067h-5.334v-1.067h5.334zM11.204 25.6v-4.053c0-1.294 1.196-2.346 2.667-2.346s2.667 1.053 2.667 2.346V25.6h-5.334zm6.4-1.696v-2.357c0-1.882-1.675-3.413-3.733-3.413h-.058c-1.353 0-2.54.707-3.213 1.771l-.009.016c-2.36-2.482-3.812-5.846-3.812-9.55 0-2.314.567-4.496 1.569-6.414l-.036.077 18.602 18.709c-1.823.947-3.979 1.502-6.266 1.502-1.079 0-2.128-.124-3.136-.357l.093.018zm11.289-.684L7.836 2.039l.754-.752 7.935 7.98c.004 0 .006.007.01.01l13.114 13.191-.757.752z" />
			<path fill="#2196f3" style="fill:var(--color2, #2196f3)"
				d="M13.876 20.267h-.007c-.884 0-1.6.716-1.6 1.6s.715 1.599 1.597 1.6h.007c.884 0 1.6-.716 1.6-1.6s-.715-1.599-1.598-1.6zm.373 1.978a.5297.5297 0 0 1-.376.155c-.295 0-.534-.239-.534-.534s.238-.533.532-.533a.533.533 0 0 1 .531.533c0 .148-.06.282-.157.378h.005z" />
		</symbol>
		<symbol id="icon-astronaut" viewBox="0 0 32 32">
			<path fill="#2196f3" style="fill:var(--color2, #2196f3)"
				d="M31.974 4.524c-.064-.191-.227-.332-.427-.362h-.003l-1.911-.278-.855-1.731c-.179-.365-.777-.365-.956 0l-.855 1.731-1.911.278c-.26.039-.457.26-.457.528 0 .15.062.285.161.382l1.383 1.348-.326 1.903c-.034.2.048.402.212.522.166.12.383.135.562.04l1.709-.899 1.709.899a.531.531 0 0 0 .247.061.5339.5339 0 0 0 .526-.626v.003l-.326-1.903 1.383-1.348a.5348.5348 0 0 0 .134-.55l.001.004zm-2.463 1.327a.5308.5308 0 0 0-.153.472l.191 1.114-1-.526c-.072-.039-.158-.062-.249-.062s-.177.023-.252.063l.003-.001-1 .526.191-1.114a.53.53 0 0 0-.152-.472l-.811-.79 1.119-.162a.5324.5324 0 0 0 .402-.292l.5-1.013.5 1.013c.078.158.228.267.402.292l1.119.162-.809.79zm-3.377 14.671h-1.067v1.067h1.067v-1.067zm0 2.134h-1.067v1.066h1.067v-1.066zm1.066-1.067h-1.067v1.067H27.2v-1.067zm-2.133 0H24v1.067h1.067v-1.067zm-2.667 4.8h-1.067v1.067H22.4v-1.067zm0 2.134h-1.067v1.067H22.4v-1.067zm1.067-1.067H22.4v1.067h1.067v-1.067zm-2.133 0h-1.067v1.067h1.067v-1.067zM16 24.256h-1.066v1.067H16v-1.067zm0 2.133h-1.066v1.067H16v-1.067zm1.067-1.067H16v1.067h1.067v-1.067zm-2.133 0h-1.067v1.067h1.067v-1.067zm-9.067-19.2H4.801v1.066h1.066V6.122zm0 2.134H4.801v1.066h1.066V8.256zm1.066-1.067H5.866v1.067h1.066V7.189zm-2.133 0H3.733v1.067H4.8V7.189z" />
			<path fill="#212121" style="fill:var(--color1, #212121)"
				d="M24.715 14.16c-.28-.376-.698-.636-1.179-.703l-.009-.001a1.6677 1.6677 0 0 0-.254-.018c-.411 0-.789.139-1.09.373l.004-.003-1.253.96-1.898 1.417-1.358-.541c2.421-1.086 4.113-3.508 4.113-6.32 0-3.823-3.122-6.934-6.961-6.934S7.869 5.5 7.869 9.324c0 1.386.415 2.674 1.12 3.759l-2.768-.024c-.009 0-.016.005-.023.005a.5113.5113 0 0 0-.159.033l.004-.001c-.013.005-.026.007-.038.013-.006.003-.013.003-.019.006l-3.233 1.596s-.001 0-.001.001l-1.893.91a.4994.4994 0 0 0-.065.036l.001-.001C.313 15.981 0 16.524 0 17.14c0 .297.073.577.201.823l-.005-.01c.22.424.592.742 1.043.885l.013.003c.161.053.345.083.537.083.308 0 .598-.078.851-.216l-.009.005 1.388-.738 2.264-1.169 1.357-.008-5.442 5.415c0 .001-.001.001-.001.001L.858 23.547c-.303.299-.491.714-.491 1.173v.005c.002.919.748 1.664 1.667 1.664h.002c.428 0 .854-.162 1.18-.485l1.314-1.309 1.741-1.3.901.897L4.07 27.28c-.303.299-.491.714-.491 1.173v.004c0 .445.174.864.49 1.179.302.3.717.485 1.176.485h.003c.427 0 .855-.162 1.18-.485l4.488-4.472c.007-.006.016-.009.022-.016l5.166-5.658 3.471.494c.025.004.05.006.075.006.064 0 .127-.016.187-.038.017-.006.032-.015.049-.023.019-.01.039-.015.058-.027l3.213-2.133c.012-.008.018-.021.029-.03.013-.01.029-.014.041-.026l1.271-1.191c.348-.326.564-.787.564-1.3 0-.4-.132-.769-.355-1.066l.003.005zM2.13 17.77a.7058.7058 0 0 1-.34.086.7247.7247 0 0 1-.224-.036l.005.001c-.294-.093-.504-.364-.504-.683 0-.235.114-.444.289-.575l.002-.001 1.314-.632.316.924.133.389-.992.527zm3.497-1.828-1.548.8-.255-.746-.184-.537 2.027-1.001-.04 1.484zm15.1-6.62c0 .918-.219 1.785-.599 2.56l-4.181-1.899a1.865 1.865 0 0 0-.782-1.384l-.006-.004 1.464-4.861c2.377.757 4.104 2.975 4.104 5.588zm-11.789 0c0-3.235 2.644-5.867 5.894-5.867.253 0 .5.022.745.053l-1.432 4.753c-.019 0-.037-.006-.057-.006h-.001c-1.032 0-1.869.835-1.872 1.867.003 1.031.84 1.867 1.872 1.867h.001c.695 0 1.295-.383 1.618-.944l3.863 1.755c-1.075 1.447-2.795 2.39-4.737 2.39-3.25 0-5.894-2.632-5.894-5.867zm5.957.8c0 .441-.362.8-.806.8h-.001a.8038.8038 0 0 1-.804-.8c0-.441.361-.8.806-.8s.806.359.806.8zM2.464 25.146c-.11.109-.261.176-.428.176s-.317-.067-.427-.175c-.109-.108-.176-.257-.176-.422s.067-.314.176-.422l.962-.959.852.848-.959.954zm3.214 3.734c-.11.109-.261.176-.428.176s-.317-.067-.427-.175c-.109-.108-.176-.257-.176-.422s.067-.314.176-.422l.963-.959.852.848-.96.955zm3.482-3.469-.001.001-1.765 1.76-.852-.848 1.765-1.757c.04-.04.065-.088.09-.136.007-.014.02-.026.026-.04.016-.041.019-.085.026-.128.003-.025.014-.048.014-.073 0-.035-.013-.07-.02-.105-.006-.032-.006-.064-.019-.096a.5363.5363 0 0 0-.092-.138c-.01-.012-.014-.026-.025-.038h-.001s0-.001-.001-.002l-1.607-1.6c-.017-.017-.039-.024-.058-.038a.4912.4912 0 0 0-.084-.056l-.003-.001a.527.527 0 0 0-.09-.031l-.003-.001a.5019.5019 0 0 0-.101-.02h-.025c-.026 0-.051.002-.075.005h.003c-.036.005-.069.009-.104.021s-.064.027-.094.045c-.02.011-.043.015-.061.029l-1.774 1.324-.901-.897 2.399-2.386 4.36 4.289-.928.919zm6.819-7.017c-.016-.002-.03.004-.046.003-.008 0-.017-.001-.027-.001-.031 0-.062.003-.092.008h.003a.4841.4841 0 0 0-.187.07l.002-.001a.4923.4923 0 0 0-.083.061c-.013.011-.028.016-.04.029l-4.698 5.146-4.328-4.256 2.833-2.818a.5339.5339 0 0 0-.378-.911h-.002l-2.219.013.028-1.607 3.104.027c1.264 1.297 3.027 2.101 4.978 2.101h.003c.438 0 .864-.046 1.28-.122.04.032.08.064.129.085l2.41.96.152.758.178.886-3.003-.427zm4.041.178-.313-1.558 1.446-1.08.946 1.257-2.08 1.381zm3.753-2.831-.837.785-.931-1.236.831-.637c.155-.119.351-.168.543-.143.193.027.364.128.48.284.088.117.141.265.141.426 0 .206-.087.391-.226.521z" />
			<path fill="#212121" style="fill:var(--color1, #212121)"
				d="m13.602 18.544-2.143-2.134c-.096-.096-.229-.155-.376-.155s-.28.059-.376.155l-2.143 2.133c-.097.097-.156.23-.156.378s.06.281.156.378l2.142 2.134c.096.096.229.156.376.156s.28-.059.376-.156l2.143-2.134c.097-.097.157-.23.157-.378s-.06-.281-.157-.378zm-2.519 1.759-1.387-1.381 1.386-1.381 1.387 1.381-1.387 1.381zm6.081-15.232-.258 1.036c.071.018 1.738.452 1.738 2.149h1.067c0-2.017-1.666-2.965-2.547-3.184zm2.547 4.251h-1.067v1.066h1.067V9.322z" />
		</symbol>
		<symbol id="icon-clock" viewBox="0 0 32 32">
			<path fill="#212121" style="fill:var(--color1, #212121)"
				d="M31.297 15.301C31.295 6.849 24.442-.002 15.989 0S.686 6.855.688 15.308c.001 6.658 4.307 12.551 10.649 14.576.061.019.124.029.187.029.126 0 .245-.035.346-.095l-.003.002a.639.639 0 0 0 .282-.352l.001-.005 3.865-12.25c1.057-.005 1.909-.866 1.903-1.923s-.866-1.909-1.923-1.903c-.299.001-.581.072-.831.196l.011-.005-5.106-5.107a.6372.6372 0 0 0-.902.016.637.637 0 0 0 0 .886l5.103 5.109c-.392.799-.168 1.764.536 2.309l-3.683 11.673C3.845 25.783.119 17.71 2.8 10.432S13.554-.572 20.832 2.109c7.278 2.681 11.004 10.754 8.323 18.032-1.345 3.581-4.003 6.406-7.374 7.938l-.088.036-.398-1.874a.638.638 0 0 0-.756-.492.639.639 0 0 0-.293.149l.001-.001-3.837 3.426a.6366.6366 0 0 0-.052.9c.076.085.174.149.283.184l4.899 1.563c.335.108.694-.077.802-.412a.6375.6375 0 0 0 .031-.195c0-.047-.005-.092-.015-.136l.001.004-.391-1.839c5.664-2.388 9.342-7.942 9.329-14.089zm-15.305-.637c.352 0 .638.286.638.638s-.286.638-.638.638c-.352 0-.638-.285-.638-.638s.285-.638.638-.638zm2.101 14.864 2.184-1.948.603 2.84-2.787-.892z" />
			<path fill="#2196f3" style="fill:var(--color2, #2196f3)"
				d="M15.354 3.185V4.46c0 .352.285.638.638.638s.638-.285.638-.638V3.185c0-.352-.286-.638-.638-.638s-.638.286-.638.638zM3.876 14.664c-.352 0-.638.286-.638.638s.285.638.638.638h1.275c.352 0 .638-.285.638-.638s-.285-.638-.638-.638H3.876zm24.232 1.275c.352 0 .638-.285.638-.638s-.285-.638-.638-.638h-1.275c-.352 0-.638.286-.638.638s.286.638.638.638h1.275z" />
		</symbol>
		<symbol id="icon-diagram" viewBox="0 0 32 32">
			<path fill="#2196f3" style="fill:var(--color2, #2196f3)"
				d="M14.926 14.965h1.066v4.798h-1.066v-4.797zm4.264 2.132h1.066v2.665H19.19v-2.665zm-8.529 1.599h1.066v1.066h-1.066v-1.066zm-3.198-.533h1.066v1.599H7.463v-1.599z" />
			<path fill="#212121" style="fill:var(--color1, #212121)"
				d="M1.599 28.291h25.587c.883 0 1.599-.716 1.599-1.599V24.56c0-.883-.716-1.599-1.599-1.599h-.533V9.668L29.681 6.8c.703.346 1.553.136 2.013-.499s.396-1.508-.152-2.068-1.42-.644-2.065-.198-.873 1.292-.542 2.002L26.654 8.2V6.97c0-.883-.716-1.599-1.599-1.599H3.733c-.883 0-1.599.716-1.599 1.599v15.992h-.533c-.883 0-1.599.716-1.599 1.599v2.132c0 .883.716 1.599 1.599 1.599zM30.384 4.837c.294 0 .533.239.533.533s-.239.533-.533.533c-.294 0-.533-.239-.533-.533s.239-.533.533-.533zM3.198 6.969c0-.294.239-.533.533-.533h21.322c.294 0 .533.239.533.533v2.239l-1.066 1.013V8.035c0-.294-.239-.533-.533-.533H4.797c-.294 0-.533.239-.533.533v13.326c0 .294.239.533.533.533h19.19c.294 0 .533-.239.533-.533v-9.674l1.066-1.01v12.284H3.198V6.969zm4.798 6.93c-.721-.002-1.354.478-1.546 1.174s.105 1.433.725 1.801c.62.368 1.41.276 1.928-.226l1.853.93a.5341.5341 0 0 0 .636-.122v-.001l3.939-4.431 3.872 2.901a.5355.5355 0 0 0 .687-.04l3.365-3.188v8.131H5.331V8.568h18.124v2.66L19.684 14.8l-3.904-2.927a.5332.5332 0 0 0-.718.072l-3.993 4.493-1.493-.746c.01-.056.017-.123.02-.19v-.003c0-.883-.716-1.599-1.599-1.599zm.533 1.599c0 .294-.239.533-.533.533s-.533-.239-.533-.533c0-.294.239-.533.533-.533s.533.239.533.533zm3.198 8.529h5.331v.533c0 .294-.239.533-.533.533h-4.264a.5335.5335 0 0 1-.533-.533v-.533zm-10.661.533c0-.294.239-.533.533-.533h9.062v.533c0 .883.716 1.599 1.599 1.599h4.264c.883 0 1.599-.716 1.599-1.599v-.533h9.062c.294 0 .533.239.533.533v2.132c0 .294-.239.533-.533.533H1.598a.5335.5335 0 0 1-.533-.533V24.56z" />
		</symbol>
		<symbol id="icon-envelope" viewBox="0 0 43 32">
			<path
				d="M38.667 0H4C1.794 0 0 1.794 0 4v24c0 2.206 1.794 4 4 4h34.667c2.206 0 4-1.794 4-4V4c0-2.206-1.794-4-4-4zm0 2.667c.181 0 .353.038.511.103L21.334 18.236 3.49 2.77c.158-.066.33-.103.511-.103h34.667zm0 26.666H4c-.736 0-1.333-.598-1.333-1.333V5.587L20.46 21.008a1.335 1.335 0 0 0 1.748 0L40.001 5.587V28c0 .736-.598 1.333-1.333 1.333z" />
		</symbol>
		<symbol id="icon-facebook" viewBox="0 0 32 32">
			<path
				d="M21.329 5.313h2.921V.225C23.746.156 22.013 0 19.994 0c-4.212 0-7.097 2.649-7.097 7.519V12H8.249v5.688h4.648V32h5.699V17.689h4.46l.708-5.688h-5.169V8.082c.001-1.644.444-2.769 2.735-2.769z" />
		</symbol>
		<symbol id="icon-instagram" viewBox="0 0 32 32">
			<path
				d="M31.969 9.408c-.075-1.7-.35-2.869-.744-3.882-.406-1.075-1.032-2.038-1.851-2.838A7.8671 7.8671 0 0 0 26.542.844C25.523.45 24.36.175 22.66.1 20.947.019 20.403 0 16.059 0s-4.888.019-6.595.094c-1.7.075-2.869.35-3.882.744-1.075.406-2.038 1.031-2.838 1.85C1.931 3.488 1.3 4.457.9 5.52.506 6.539.231 7.702.156 9.402c-.081 1.713-.1 2.257-.1 6.601s.019 4.888.094 6.595c.075 1.7.35 2.869.744 3.882.406 1.075 1.038 2.038 1.85 2.838.8.813 1.769 1.444 2.832 1.844 1.019.394 2.182.669 3.882.744 1.706.075 2.25.094 6.595.094s4.888-.019 6.595-.094c1.7-.075 2.869-.35 3.882-.744a8.1843 8.1843 0 0 0 4.682-4.682c.394-1.019.669-2.182.744-3.882.075-1.707.094-2.251.094-6.595s-.006-4.888-.081-6.595zm-2.882 13.065c-.069 1.563-.331 2.407-.55 2.969a5.3097 5.3097 0 0 1-3.038 3.038c-.563.219-1.413.481-2.969.55-1.688.075-2.194.094-6.464.094s-4.782-.019-6.464-.094c-1.563-.069-2.407-.331-2.969-.55-.694-.256-1.325-.663-1.838-1.194-.531-.519-.938-1.144-1.194-1.838-.219-.563-.481-1.413-.55-2.969-.075-1.688-.094-2.194-.094-6.464s.019-4.782.094-6.464c.069-1.563.331-2.407.55-2.969.256-.694.663-1.325 1.2-1.838.519-.531 1.144-.938 1.838-1.194.563-.219 1.413-.481 2.969-.55 1.688-.075 2.194-.094 6.464-.094 4.276 0 4.782.019 6.464.094 1.563.069 2.407.331 2.969.55.694.256 1.325.662 1.838 1.194.531.519.938 1.144 1.194 1.838.219.563.481 1.413.55 2.969.075 1.688.094 2.194.094 6.464s-.019 4.77-.094 6.458z" />
			<path
				d="M16.059 7.783c-4.538 0-8.22 3.682-8.22 8.22s3.682 8.22 8.22 8.22c4.539 0 8.22-3.682 8.22-8.22s-3.682-8.22-8.22-8.22zm0 13.552c-2.944 0-5.332-2.388-5.332-5.332s2.388-5.332 5.332-5.332 5.332 2.388 5.332 5.332-2.388 5.332-5.332 5.332zM26.524 7.458c0 1.06-.859 1.919-1.919 1.919s-1.919-.859-1.919-1.919.859-1.919 1.919-1.919 1.919.859 1.919 1.919z" />
		</symbol>
		<symbol id="icon-linkedin" viewBox="0 0 32 32">
			<path
				d="M31.992 32v-.001H32V20.263c0-5.741-1.236-10.164-7.948-10.164-3.227 0-5.392 1.771-6.276 3.449h-.093v-2.913h-6.364v21.364h6.627V21.42c0-2.785.528-5.479 3.977-5.479 3.399 0 3.449 3.179 3.449 5.657v10.401h6.62zM.528 10.636h6.635V32H.528V10.636zM3.843 0C1.722 0 0 1.721 0 3.843s1.721 3.879 3.843 3.879c2.121 0 3.843-1.757 3.843-3.879C7.685 1.722 5.963 0 3.843 0z" />
		</symbol>
		<symbol id="icon-logo-1" viewBox="0 0 57 32">
			<path
				d="m20.267 3.733 3.738 3.538-6.938-.004v17.166H35.2v-6.564l3.733 3.534V3.732H20.266zm14.769 13.722L24.439 7.423h10.597v10.032zm-3.29 4.468h-11.81V10.378h.835v10.764h10.975v.782zm-9.021 4.797-.436.898-.436-.898h-.366l.637 1.198v.698h.331v-.698l.635-1.198h-.365zm.548 1.895.154-.441h.734l.155.441h.344l-.717-1.896h-.296l-.716 1.896h.342zm.521-1.493.275.786h-.549l.275-.786zm1.737.741a.4259.4259 0 0 0-.072.238v.003c0 .16.056.29.168.389s.263.148.451.148.349-.051.484-.152l.107.126h.367l-.279-.329c.109-.149.164-.341.164-.574h-.275c0 .128-.026.243-.079.348l-.366-.432.129-.094c.091-.066.157-.132.197-.198.038-.062.06-.136.06-.216v-.003c0-.12-.044-.22-.133-.301s-.201-.122-.339-.122c-.153 0-.274.043-.365.13s-.135.203-.135.352c0 .061.014.124.043.189s.081.144.155.237c-.141.101-.235.188-.283.262zm.855.419c-.093.071-.193.107-.299.107-.095 0-.17-.027-.227-.082s-.085-.126-.085-.214c0-.102.052-.192.156-.271l.04-.029.414.488zm-.34-.84c-.089-.11-.134-.202-.134-.275 0-.063.018-.116.055-.158s.085-.063.147-.063c.057 0 .105.018.142.053s.056.077.056.126c0 .075-.027.136-.081.184l-.04.033-.145.099zm3.086 1.03c.13-.114.205-.272.224-.474h-.328c-.017.135-.059.232-.124.29s-.162.087-.292.087c-.142 0-.249-.054-.323-.161s-.109-.264-.109-.469v-.168c.002-.202.041-.355.117-.46s.188-.158.331-.158c.123 0 .217.03.28.091s.104.158.12.294h.328c-.021-.207-.095-.368-.223-.482s-.296-.171-.505-.171c-.155 0-.293.037-.411.111s-.209.179-.272.315c-.063.136-.095.294-.095.473v.177c.003.174.035.328.098.46s.151.234.266.306c.115.071.249.107.4.107.216 0 .389-.056.52-.169zm1.936-.266c.064-.141.096-.304.096-.49v-.105c-.001-.185-.034-.347-.099-.486s-.158-.247-.277-.32c-.119-.075-.256-.112-.41-.112s-.292.038-.411.113c-.119.075-.211.183-.277.324s-.098.305-.098.49v.107c.001.181.034.342.099.48s.159.246.279.322c.121.075.258.112.411.112.155 0 .293-.037.411-.112s.212-.183.276-.323zm-.352-1.071c.08.112.12.273.12.483v.099c0 .214-.04.376-.119.487s-.19.167-.336.167c-.144 0-.257-.057-.339-.171s-.121-.275-.121-.483v-.109c.002-.204.043-.362.122-.473s.192-.168.335-.168c.146 0 .258.056.337.168z" />
		</symbol>
		<symbol id="icon-logo-2" viewBox="0 0 57 32">
			<path
				d="M26.727 3.165h-.073c-.112-.007-.224-.01-.336-.012h-.243c-.212 0-.428.005-.642.016-.007-.001-.016-.001-.024-.001s-.017 0-.025.001h.001c-2.059.12-3.971.635-5.699 1.47l.09-.039-.231.111V16.52l.54-.183c.474-.163.978-.309 1.5-.445 1.29-.345 2.775-.553 4.305-.574h.013v1.551c-.204.001-.403.007-.6.018l.032-.001h-.045c-1.212.068-2.348.25-3.442.537l.12-.027c-1.503.382-2.82.91-4.044 1.586l.087-.044V3.793c1.195-.711 2.578-1.289 4.042-1.665l.11-.024c1.173-.315 2.52-.499 3.909-.504h.231c.273.007.538.019.788.038.719.052 1.384.162 2.028.328l-.078-.017v1.527c-.544-.133-1.19-.235-1.85-.282l-.039-.002-.039-.003c-.132-.011-.263-.022-.386-.022zm2.688 1.561c.339.026.689.038 1.044.038 1.464-.006 2.881-.198 4.231-.554l-.117.026c1.503-.384 2.819-.912 4.043-1.588l-.087.044v14.875c-1.196.71-2.578 1.289-4.043 1.665l-.11.024c-1.173.314-2.52.497-3.909.503h-.1c-1.02 0-2.01-.128-2.955-.368l.083.018V4.438c.229.053.465.102.706.142.394.066.81.115 1.214.145zm7.57.115-.54.182c-.326.12-.827.273-1.334.411l-.166.038c-1.344.36-2.888.569-4.48.575h-.004c-.352 0-.676-.01-.989-.03l-.43-.028v12.148l.37.033c.343.03.696.045 1.052.045 1.257-.006 2.473-.172 3.631-.48l-.1.023c1.058-.269 1.977-.608 2.847-1.03l-.088.039.231-.111V4.843zM19.06 24.113a.8059.8059 0 0 0-.269-.184l-.005-.002a.7708.7708 0 0 0-.297-.058c-.01 0-.02 0-.03.001h.001-.012c-.121 0-.236.024-.341.067l.006-.002a.8143.8143 0 0 0-.27.178.7865.7865 0 0 0-.172.266l-.002.005a.871.871 0 0 0-.062.325v.011-.001 2.023c-.005.143.022.284.08.415.05.107.118.197.201.27l.001.001a.718.718 0 0 0 .278.144c.09.026.195.042.302.042h.007c.116 0 .226-.026.324-.073l-.005.002a.869.869 0 0 0 .27-.187.8794.8794 0 0 0 .175-.265l.002-.006a.804.804 0 0 0 .065-.319v-.23h-.529v.192c0 .061-.011.118-.032.171l.001-.003a.315.315 0 0 1-.077.114.3405.3405 0 0 1-.108.058l-.002.001a.3837.3837 0 0 1-.11.019.2628.2628 0 0 1-.14-.021l.002.001a.2758.2758 0 0 1-.109-.087l-.001-.001a.4772.4772 0 0 1-.071-.25v-.022.001-1.907c0-.103.024-.2.067-.286l-.002.004a.2797.2797 0 0 1 .11-.098l.002-.001a.2687.2687 0 0 1 .148-.024h-.001.01c.092 0 .174.045.226.113l.001.001c.055.071.088.162.088.26v.011-.001.175h.524v-.214c0-.124-.024-.243-.067-.352l.002.006a.8225.8225 0 0 0-.177-.285zm3.142-.023a.9333.9333 0 0 0-.601-.222c-.113 0-.222.021-.322.059l.006-.002a.8423.8423 0 0 0-.28.166l.001-.001a.8456.8456 0 0 0-.203.278l-.002.005c-.049.11-.077.239-.077.374v.019-.001 1.941c-.004.137.023.272.077.397.048.104.118.197.205.271.081.075.176.133.279.171a.944.944 0 0 0 .316.057c.113 0 .222-.021.322-.059l-.006.002c.11-.041.205-.099.287-.172l-.001.001c.083-.075.15-.165.198-.266l.002-.005c.049-.11.077-.238.077-.372v-.026.001-1.959c0-.135-.028-.263-.079-.38l.002.006a.8761.8761 0 0 0-.199-.283zm-.247 2.616c.001.009.001.019.001.03 0 .098-.041.187-.106.251a.3874.3874 0 0 1-.499 0h.001a.3455.3455 0 0 1-.107-.251c0-.011 0-.021.001-.031v.001-1.941c-.001-.009-.001-.02-.001-.03 0-.098.041-.187.106-.251a.3874.3874 0 0 1 .499 0h-.001c.066.063.107.152.107.251 0 .011 0 .021-.001.032v-.001 1.941zm4.374.867v-3.674h-.509l-.668 1.945h-.009l-.673-1.945h-.503v3.674h.525v-2.235h.009l.514 1.58h.262l.518-1.58h.009v2.235h.525zm2.982-3.416a.7287.7287 0 0 0-.292-.199l-.005-.002a1.151 1.151 0 0 0-.36-.057h-.8v3.674h.523v-1.435h.27a.964.964 0 0 0 .472-.1c.12-.068.217-.163.285-.277l.002-.003c.058-.092.1-.2.119-.315l.001-.005c.018-.116.029-.249.029-.385v-.034.002c.001-.018.001-.039.001-.061 0-.165-.019-.325-.055-.478l.003.014a.789.789 0 0 0-.193-.338zm-.27 1.12c-.002.07-.02.136-.05.194l.001-.003a.299.299 0 0 1-.133.128l-.002.001c-.064.03-.14.047-.219.047-.01 0-.019 0-.029-.001h.001-.239v-1.249h.27c.007 0 .016-.001.025-.001.077 0 .149.017.215.048l-.003-.001c.054.032.096.078.122.134l.001.002c.029.065.044.134.046.205v.244c0 .085.005.174 0 .252h-.005zm2.75-1.378h-.429l-.809 3.674h.523l.154-.789h.714l.154.789h.524l-.83-3.674zm-.483 2.384.258-1.332h.009l.256 1.332h-.524zm3.865-.171h-.009l-.791-2.213h-.503v3.674h.523v-2.209h.011l.8 2.209h.492v-3.674h-.523v2.213zm3.199-2.213-.421 1.461h-.011l-.421-1.461h-.554l.719 2.121v1.553h.524V26.02l.719-2.121h-.554zM17.6 28.61h.252v.708h.171v-.708h.251v-.145h-.675v.145zm2.121-.145-.331.853h.182l.07-.194h.34l.073.194h.186l-.339-.853h-.182zm-.027.516.116-.316.116.316h-.232zm2.124.023h.197v.11a.329.329 0 0 1-.202.072h-.012a.2185.2185 0 0 1-.169-.081.3555.3555 0 0 1-.064-.204c0-.007 0-.013.001-.02v.001c0-.19.082-.285.246-.285.005-.001.012-.001.018-.001.039 0 .075.012.104.033h-.001c.035.025.06.061.071.102v.001l.169-.033c-.036-.167-.156-.251-.362-.251h-.011c-.11 0-.211.042-.287.11a.4154.4154 0 0 0-.124.297c0 .011 0 .022.001.033v-.001.02c0 .115.041.22.11.301l-.001-.001c.075.078.18.126.296.126.01 0 .019 0 .029-.001h-.001.014a.515.515 0 0 0 .348-.136v-.336h-.37v.144zm2.141-.539h-.173v.853h.598v-.145h-.425v-.708zm1.81 0h-.173v.853h.173v-.853zm1.77.57-.349-.57h-.167v.853h.161v-.557l.343.557h.171v-.853h-.158v.57zm1.601-.092h.425v-.145h-.425v-.187h.457v-.145h-.63v.853h.648v-.145h-.475v-.231zm3.88-.141h-.336v-.336h-.171v.853h.171v-.373h.336v.373h.171v-.853h-.171v.336zm1.609.141h.426v-.145h-.426v-.187h.459v-.145h-.63v.853h.646v-.145h-.475v-.231zm2.183 0c.148-.023.224-.102.224-.237.001-.007.001-.016.001-.024 0-.068-.033-.128-.084-.165h-.001a.4809.4809 0 0 0-.216-.051c-.012 0-.023 0-.035.001h.002-.362v.853h.171v-.357h.048c.033 0 .065.007.094.02l-.001-.001c.025.016.046.037.06.062v.001l.186.271h.205L37 29.149a.5984.5984 0 0 0-.187-.203l-.002-.001zm-.172-.118h-.127v-.214h.135c.011-.001.023-.001.036-.001.049 0 .097.008.141.023l-.003-.001a.1122.1122 0 0 1-.007.174.4662.4662 0 0 1-.143.021c-.011 0-.022 0-.033-.001h.001zm1.818.118h.425v-.145h-.425v-.187h.459v-.145h-.631v.853h.648v-.145h-.475v-.231z" />
		</symbol>
		<symbol id="icon-logo-3" viewBox="0 0 57 32">
			<path
				d="M19.417 26.187c.009 0 .017.002.025.005s.015.007.021.013l.116.111c-.09.09-.202.162-.327.211-.129.048-.278.076-.434.076h-.031.002-.024c-.148 0-.29-.026-.421-.074l.009.003a.9416.9416 0 0 1-.329-.2c-.094-.089-.166-.194-.212-.308s-.074-.245-.074-.384v-.013.001-.013c0-.139.029-.271.082-.39l-.002.006a.91.91 0 0 1 .225-.308c.099-.087.218-.155.349-.201.13-.045.279-.071.435-.071h.016-.001.027c.14 0 .274.024.399.067l-.009-.003c.115.043.221.104.313.178l-.097.119a.0791.0791 0 0 1-.024.021.064.064 0 0 1-.034.009h-.006a.103.103 0 0 1-.043-.013l-.052-.032-.073-.04a.6763.6763 0 0 0-.092-.037l-.006-.002a.9293.9293 0 0 0-.126-.031l-.006-.001a.9872.9872 0 0 0-.16-.013h-.014.001-.012a.928.928 0 0 0-.318.055l.007-.002a.7366.7366 0 0 0-.253.149.6827.6827 0 0 0-.164.238c-.038.09-.06.194-.06.303v.011-.001.012c0 .11.022.216.062.312l-.002-.005c.035.087.09.167.161.236a.68.68 0 0 0 .241.147.867.867 0 0 0 .3.05h.017c.056 0 .112-.004.167-.011l-.006.001c.1-.011.191-.041.273-.087l-.003.002a.7887.7887 0 0 0 .116-.08l-.002.001c.015-.012.034-.02.055-.02zm3.359-.558v.012a.966.966 0 0 1-.081.388l.002-.006c-.047.114-.122.218-.219.305s-.214.155-.344.2c-.132.045-.284.071-.442.071s-.31-.026-.452-.074l.01.003a1.0268 1.0268 0 0 1-.342-.201.904.904 0 0 1-.221-.308 1.0225 1.0225 0 0 1 0-.787c.05-.115.125-.22.221-.31.097-.084.214-.15.342-.193.132-.046.284-.072.442-.072s.31.026.452.075l-.01-.003c.129.046.246.114.343.201.096.088.17.191.22.304.054.127.08.261.078.395zm-.306 0v-.017c0-.108-.02-.21-.057-.305l.002.006a.653.653 0 0 0-.156-.236.6826.6826 0 0 0-.246-.149c-.096-.033-.206-.052-.321-.052s-.225.019-.329.054l.007-.002a.6826.6826 0 0 0-.246.149.6308.6308 0 0 0-.157.236c-.035.094-.056.203-.056.316s.02.222.058.322l-.002-.006a.643.643 0 0 0 .157.236c.068.065.152.115.246.148.096.032.207.05.321.05s.225-.018.329-.053l-.007.002a.6978.6978 0 0 0 .246-.148c.07-.069.123-.149.156-.236a.8147.8147 0 0 0 .055-.298v-.019.001zm2.597.331.03.071c.012-.025.022-.048.033-.071.013-.027.026-.05.039-.072l-.002.003.743-1.174c.015-.02.028-.033.042-.037s.033-.007.051-.007h.231v1.909h-.26v-1.463c-.001-.01-.001-.021-.001-.033s0-.023.001-.034v.002l-.747 1.19a.111.111 0 0 1-.043.043h-.001c-.018.01-.04.016-.063.016H25.075a.1339.1339 0 0 1-.063-.016h.001a.1048.1048 0 0 1-.043-.043v-.001l-.769-1.198v1.532h-.252v-1.905h.23c.018 0 .035.002.052.007h-.001c.018.007.032.02.041.036l.759 1.175c.014.02.026.042.037.066l.001.003zm2.797-.095v.715h-.291v-1.906h.673c.12 0 .237.015.348.044l-.01-.002c.094.023.181.064.256.119.065.052.114.116.145.187.034.078.051.161.049.244v.007c0 .086-.02.167-.055.24l.001-.003a.5405.5405 0 0 1-.157.191.7441.7441 0 0 1-.252.125l-.005.001a1.208 1.208 0 0 1-.327.044h-.025.001l-.352-.005zm0-.205h.362c.077 0 .151-.011.221-.03l-.006.001a.479.479 0 0 0 .164-.083l-.001.001a.3379.3379 0 0 0 .098-.124l.001-.002a.361.361 0 0 0 .035-.156v-.005c0-.006.001-.013.001-.02a.313.313 0 0 0-.031-.137l.001.002a.3831.3831 0 0 0-.101-.13l-.001-.001c-.111-.075-.251-.112-.391-.102h-.352v.786zm3.908.923h-.234a.1115.1115 0 0 1-.06-.018.116.116 0 0 1-.038-.044v-.001l-.198-.461h-.993l-.205.461a.1081.1081 0 0 1-.036.043.1083.1083 0 0 1-.062.019h-.234l.872-1.909h.302l.884 1.909zm-1.439-.709h.82l-.346-.777a1.2046 1.2046 0 0 1-.063-.171l-.002-.009-.034.1a.7347.7347 0 0 1-.034.086l.002-.006-.343.776zm2.696-1.192c.017.008.032.02.043.034l1.272 1.439v-1.482h.26v1.909h-.149c-.02 0-.039-.004-.057-.012h.001a.1477.1477 0 0 1-.046-.035l-1.271-1.438c.001.01.001.021.001.033s0 .023-.001.034v-.002 1.419h-.26v-1.909h.158c.017 0 .034.003.05.009h-.001zm3.719 1.141v.758h-.291v-.758l-.804-1.15h.266c.021 0 .041.006.057.017.015.012.029.026.039.042v.001l.503.742c.02.032.038.061.052.088s.026.054.036.081l.038-.082a.577.577 0 0 1 .051-.089l-.002.002.496-.747a.2021.2021 0 0 1 .037-.04.096.096 0 0 1 .058-.019h.268l-.806 1.155zM24.923 21.47c.127.014.255.025.384.035 1.962-.763 3.622-2.011 4.772-3.588s1.74-3.415 1.695-5.282l-2.162-1.879c.44 1.988.234 4.043-.594 5.935s-2.245 3.547-4.094 4.779z" />
			<path
				d="m24.151 21.383.058.01c1.975-1.228 3.482-2.942 4.323-4.921s.981-4.133.4-6.181l-3.08-2.676c1.246 2.2 1.747 4.661 1.446 7.098s-1.393 4.75-3.147 6.67zm10.445-6.542c-.523 2.052-1.794 3.902-3.624 5.276-.534.404-1.111.763-1.722 1.074 1.49-.38 2.859-1.053 4.003-1.966s2.03-2.042 2.592-3.3l-1.249-1.084z" />
			<path
				d="m34.106 14.539-1.778-1.545c-.034 1.762-.61 3.483-1.669 4.986s-2.562 2.731-4.352 3.559h.009c.421 0 .836-.023 1.245-.066l-.051.004c1.673-.593 3.151-1.537 4.303-2.748s1.94-2.65 2.295-4.189zm-9.697-8.053L22.287 4.64c-1.897.637-3.528 1.756-4.68 3.212s-1.772 3.179-1.778 4.946c.007 1.952.763 3.846 2.149 5.383s3.322 2.628 5.501 3.101c1.946-2.06 3.085-4.605 3.252-7.266s-.647-5.299-2.323-7.53zm14.599 7.769c-.008-2.316-1.07-4.535-2.955-6.173s-4.439-2.561-7.105-2.567c-1.232-.001-2.453.196-3.602.582l12.99 11.286c.445-.998.673-2.058.672-3.128z" />
		</symbol>
		<symbol id="icon-logo-4" viewBox="0 0 57 32">
			<path
				d="M12.878 11.255h-.002c-1.279 0-2.316.921-2.316 2.058v.001c0 1.137 1.037 2.058 2.316 2.058h.002c1.279 0 2.316-.921 2.316-2.058v-.001c0-1.137-1.037-2.058-2.316-2.058zm17.093-.658c-.004-1.579-.711-3.092-1.967-4.208s-2.958-1.745-4.735-1.749c-1.777.003-3.48.631-4.737 1.748s-1.964 2.63-1.968 4.209v8.706s13.405-1.327 13.406-8.704v-.001zM5.867 22.16c.003 1.098.496 2.151 1.369 2.928s2.058 1.215 3.294 1.218c1.236-.003 2.42-.441 3.294-1.218s1.366-1.829 1.37-2.927v-6.057s-9.327.924-9.327 6.056zm4.663 1.085c-.242 0-.478-.064-.678-.183s-.357-.289-.45-.487c-.092-.198-.117-.417-.069-.627s.163-.404.334-.556c.171-.152.388-.255.625-.297s.482-.02.706.062c.223.082.414.221.548.4s.206.388.206.603v.002c0 .15-.034.293-.094.42l.003-.006c-.061.132-.151.252-.264.353s-.248.182-.397.236c-.139.053-.299.083-.467.083h-.002v-.004zm9.426-.598h-.9v.93h-.469v-2.275h1.481v.38h-1.012v.588h.9v.378zm2.253-.156c0 .224-.04.42-.119.589s-.193.299-.341.391c-.147.092-.316.137-.506.137-.189 0-.357-.045-.505-.136s-.262-.22-.344-.387c-.081-.169-.122-.363-.123-.581v-.112c0-.224.04-.421.12-.591.081-.171.195-.302.342-.392.148-.092.317-.137.506-.137s.358.046.505.137c.148.091.262.221.342.392.081.17.122.366.122.589v.102zm-.475-.103c0-.238-.043-.42-.128-.544s-.207-.186-.366-.186c-.157 0-.279.061-.364.184-.085.122-.129.301-.13.538v.111c0 .232.043.412.128.541s.208.192.369.192c.157 0 .278-.061.363-.184.084-.124.127-.304.128-.541v-.111zm1.996.592c0-.089-.031-.156-.094-.203-.063-.048-.175-.098-.337-.15-.163-.053-.291-.105-.386-.156-.258-.14-.387-.328-.387-.564 0-.123.034-.232.103-.328.07-.097.169-.172.298-.227.13-.054.276-.081.438-.081.163 0 .307.03.434.089.127.058.226.141.295.248s.106.229.106.366h-.469c0-.104-.033-.185-.098-.242s-.158-.087-.277-.087c-.115 0-.204.024-.267.073-.064.048-.095.111-.095.191 0 .074.037.136.111.186.075.05.185.097.33.141.267.08.461.18.583.298s.183.267.183.444c0 .197-.075.352-.223.464-.149.111-.349.167-.602.167-.175 0-.334-.032-.478-.095-.144-.065-.254-.153-.33-.264s-.113-.241-.113-.388h.47c0 .251.15.377.45.377.111 0 .198-.022.261-.067.063-.046.094-.109.094-.191zm2.501-1.298h-.697v1.895h-.469v-1.895h-.687v-.38h1.853v.38zm1.638.909h-.9v.609h1.056v.377H26.5v-2.275h1.522v.38h-1.053v.542h.9v.367zm1.273.153h-.373v.833H28.3v-2.275h.845c.269 0 .476.06.622.18s.219.289.219.508c0 .155-.034.285-.102.389-.067.103-.168.185-.305.247l.492.93v.022h-.503l-.427-.833zm-.373-.379h.378c.118 0 .209-.03.273-.089.065-.06.097-.143.097-.248 0-.107-.031-.192-.092-.253-.06-.061-.154-.092-.28-.092h-.377v.683zm2.84.41v.802h-.469v-2.275h.887c.171 0 .321.031.45.094s.23.152.3.267c.07.115.105.245.105.392 0 .223-.077.399-.23.528-.152.128-.363.192-.633.192h-.411zm0-.379h.419c.124 0 .218-.029.283-.088.066-.058.098-.142.098-.25 0-.111-.033-.202-.098-.27s-.156-.104-.272-.106h-.43v.714zm2.966.195h-.9v.609h1.056v.377h-1.525v-2.275h1.522v.38h-1.053v.542h.9v.367zm2.175-.909h-.697v1.895h-.469v-1.895h-.688v-.38h1.853v.38zm1.637.909h-.9v.609h1.056v.377h-1.525v-2.275h1.522v.38h-1.053v.542h.9v.367zm1.274.153h-.373v.833h-.469v-2.275h.845c.269 0 .476.06.622.18s.219.289.219.508c0 .155-.034.285-.102.389-.067.103-.168.185-.305.247l.492.93v.022h-.503l-.427-.833zm-.374-.379h.378c.118 0 .209-.03.273-.089.065-.06.097-.143.097-.248 0-.107-.031-.192-.092-.253-.06-.061-.154-.092-.28-.092h-.377v.683zm2.755.615c0-.089-.031-.156-.094-.203-.063-.048-.175-.098-.337-.15-.163-.053-.291-.105-.386-.156-.258-.14-.388-.328-.388-.564 0-.123.034-.232.103-.328.07-.097.169-.172.298-.227.13-.054.276-.081.438-.081.163 0 .307.03.434.089.127.058.226.141.295.248.071.107.106.229.106.366h-.469c0-.104-.033-.185-.098-.242s-.158-.087-.277-.087c-.115 0-.204.024-.267.073-.064.048-.095.111-.095.191 0 .074.037.136.111.186.075.05.185.097.33.141.267.08.461.18.583.298s.183.267.183.444c0 .197-.074.352-.223.464-.149.111-.349.167-.602.167-.175 0-.334-.032-.478-.095-.144-.065-.254-.153-.33-.264-.075-.111-.112-.241-.112-.388h.47c0 .251.15.377.45.377.111 0 .198-.022.261-.067.063-.046.094-.109.094-.191z" />
		</symbol>
		<symbol id="icon-logo-5" viewBox="0 0 57 32">
			<path
				d="M14.27 23.859c.13.147.199.332.196.521.001.012.001.026.001.04 0 .116-.026.227-.073.325l.002-.005a.8171.8171 0 0 1-.233.297c-.252.175-.565.26-.881.24h-1.549v-3.302h1.517c.299-.018.596.059.84.219.098.075.176.17.227.277s.074.224.068.341c.009.182-.054.361-.176.505-.118.131-.28.222-.462.258.205.034.391.134.523.282zm-1.816-.499h.648c.147.01.294-.029.412-.11a.3989.3989 0 0 0 .11-.144l.001-.003a.353.353 0 0 0 .03-.144c0-.011-.001-.022-.002-.033v.001c.001-.008.001-.018.001-.028 0-.053-.011-.104-.031-.15l.001.002a.4103.4103 0 0 0-.108-.147h-.001a.665.665 0 0 0-.425-.111h-.638v.866zm1.124 1.267c.051-.04.091-.091.118-.149l.001-.003a.37.37 0 0 0 .035-.158c0-.009 0-.018-.001-.027v.001c0-.007.001-.015.001-.023 0-.059-.013-.115-.037-.165l.001.002a.421.421 0 0 0-.121-.152l-.001-.001a.7144.7144 0 0 0-.44-.119h-.68v.908h.689c.155.008.309-.032.435-.114zm3.793.651-.844-1.291h-.317v1.291h-.726v-3.302h1.374c.346-.022.689.078.957.281.192.179.308.415.327.666s-.061.499-.224.7c-.17.178-.401.296-.655.336l.898 1.32h-.789zm-1.161-1.74h.594c.412 0 .618-.167.618-.5.001-.008.001-.018.001-.028a.441.441 0 0 0-.035-.175l.001.003a.4937.4937 0 0 0-.118-.171c-.13-.099-.298-.147-.467-.134h-.601l.007 1.005zm5.129 1.076h-1.446l-.255.665h-.761l1.328-3.265h.823l1.323 3.265h-.761l-.25-.665zm-.194-.5-.529-1.394-.529 1.394h1.057zm5.16 1.164h-.721l-1.616-2.245v2.245h-.719v-3.302h.719l1.616 2.258v-2.258h.721v3.302zm4.112-.79c-.149.249-.376.452-.652.582-.314.145-.662.217-1.013.208h-1.283v-3.302h1.283c.351-.008.698.061 1.013.203.276.127.503.328.652.576.148.269.226.565.226.866s-.077.598-.226.866zm-.824-.079c.206-.219.319-.499.319-.788s-.113-.569-.319-.788c-.249-.199-.573-.3-.902-.281h-.5v2.137h.5c.329.019.654-.082.902-.281zm-7.803-20.8s9.301 3.215 9.103 7.867v7.869s-9.294-3.217-9.1-7.869l-.004-7.867zm17.389 13.894c1.757-1.107 3.788-1.792 5.909-1.994v-2.463c-2.444.862-4.517 2.426-5.909 4.457z" />
			<path
				d="M38.124 18.245c1.438-2.651 3.93-4.696 6.964-5.715V5.432s-13.245 4.58-12.965 11.205V27.84s.59-.205 1.519-.589c0-.358 0-.719.042-1.082.274-3.076 1.871-5.926 4.44-7.924z" />
			<path
				d="M36.864 22.407c.078-.847.242-1.626.485-2.37l-.021.076c-1.599 1.725-2.568 3.866-2.77 6.122-.019.213-.03.426-.035.645.752-.331 1.628-.744 2.548-1.229-.158-.688-.249-1.478-.249-2.289 0-.336.016-.669.046-.998l-.003.042zm.527.04c-.026.272-.041.589-.041.909 0 .718.075 1.419.216 2.095l-.012-.066c3.619-1.983 7.685-5.046 7.528-8.748v-.323c-2.585.265-5.004 1.3-6.885 2.946-.44 1.02-.712 2.094-.807 3.188z" />
		</symbol>
		<symbol id="icon-logo-6" viewBox="0 0 57 32">
			<path
				d="M28.493 14.618c-.236-.315-.349-.686-.323-1.061v-1.538c0-.471.107-.83.321-1.075s.581-.367 1.102-.366c.489 0 .836.104 1.042.313.224.266.333.592.308.92v.361h-.875v-.366c0-.014.001-.031.001-.048 0-.11-.009-.217-.028-.321l.002.011c-.013-.081-.057-.156-.125-.213a.505.505 0 0 0-.317-.083c-.12-.008-.239.024-.333.088-.076.063-.127.145-.145.235-.022.105-.035.226-.035.349v.033-.002 1.866c-.014.18.025.36.112.524.044.055.104.099.175.127a.4798.4798 0 0 0 .228.029h-.002c.112.008.223-.022.31-.084.071-.061.117-.141.13-.227.018-.101.028-.217.028-.336v-.04.002-.379h.875v.346c.025.342-.082.682-.303.967-.201.228-.544.343-1.047.343s-.884-.122-1.1-.375zm3.644.015c-.221-.239-.332-.588-.332-1.05v-1.617c0-.457.11-.802.332-1.037s.591-.351 1.109-.35c.515 0 .882.117 1.103.35.221.235.333.58.333 1.037v1.617c0 .457-.112.807-.337 1.048s-.591.361-1.1.361c-.509 0-.886-.122-1.109-.36zm1.517-.388a.906.906 0 0 0 .105-.479v-1.98a.8806.8806 0 0 0-.103-.469c-.044-.057-.106-.101-.179-.129a.4688.4688 0 0 0-.171-.031c-.021 0-.042.001-.062.004h.002a.4707.4707 0 0 0-.235.029l.003-.001c-.073.028-.135.072-.18.129a.8534.8534 0 0 0-.105.469v1.99c-.011.165.025.329.105.479.051.05.114.091.185.119s.147.042.225.042c.078 0 .154-.014.225-.042a.5402.5402 0 0 0 .185-.119v-.009zm2.081-3.619h.942l.708 2.984.725-2.984h.917l.092 4.308h-.678l-.072-2.994-.699 2.994h-.544l-.725-3.005-.067 3.005h-.685l.085-4.308zm4.441 0h1.468c.846 0 1.268.408 1.268 1.223 0 .781-.445 1.171-1.335 1.17h-.5v1.915h-.906l.005-4.308zm1.254 1.841c.09.01.18.003.266-.021a.6539.6539 0 0 0 .233-.116l-.001.001c.104-.146.15-.316.13-.486.001-.014.001-.031.001-.048 0-.122-.016-.24-.047-.352l.002.009a.3056.3056 0 0 0-.067-.118.3898.3898 0 0 0-.112-.086l-.002-.001a.926.926 0 0 0-.356-.07c-.017 0-.034 0-.051.001h.002-.352v1.287h.352zm2.788-1.841h.973l.998 4.308h-.844l-.197-.993h-.868l-.203.993h-.857l.998-4.308zm.832 2.815-.339-1.808-.339 1.808h.678zm1.946-2.815h.634l1.214 2.457v-2.457h.752v4.308h-.603l-1.221-2.565v2.565h-.777l.002-4.308zm4.361 2.665-1.009-2.659h.85l.616 1.708.578-1.708h.832l-.997 2.659v1.642h-.87v-1.642zm-21.465 3.526v.225h-.739v1.75h-.31v-1.75H28.1v-.225h1.792zm2.317 1.976h-.245a.1052.1052 0 0 1-.061-.019.1091.1091 0 0 1-.04-.045v-.001l-.214-.469h-1.026l-.214.469a.1258.1258 0 0 1-.033.053.1083.1083 0 0 1-.062.019h-.244l.906-1.976h.315l.917 1.968zm-1.5-.734h.855l-.362-.804a1.2783 1.2783 0 0 1-.064-.176l-.003-.01c-.013.038-.024.073-.034.105l-.033.083-.359.802zm3.062.54c.057.003.114.003.17 0 .054-.005.104-.013.152-.025l-.007.001c.052-.011.096-.023.138-.038l-.008.002c.04-.014.08-.031.121-.048v-.444h-.366a.0587.0587 0 0 1-.023-.004h.001a.0836.0836 0 0 1-.023-.012c-.006-.004-.01-.01-.014-.016a.0342.0342 0 0 1-.004-.018v-.154h.703v.757c-.11.069-.237.125-.373.159l-.009.002a1.59 1.59 0 0 1-.219.04l-.007.001a2.633 2.633 0 0 1-.261.012h-.016c-.159 0-.312-.027-.454-.076l.01.003a1.1044 1.1044 0 0 1-.362-.206c-.101-.09-.18-.196-.234-.313s-.083-.253-.083-.397v-.013.001-.012c0-.145.03-.282.084-.407l-.003.007a.9066.9066 0 0 1 .234-.313c.103-.089.227-.159.362-.205.14-.047.301-.074.468-.074h.019-.001.001c.088 0 .175.006.26.018l-.01-.001c.082.012.154.029.224.053l-.009-.003c.063.021.124.047.181.078.056.031.108.065.158.103l-.087.122a.0686.0686 0 0 1-.029.027.092.092 0 0 1-.041.01.111.111 0 0 1-.057-.016h.001a.892.892 0 0 1-.094-.05l.005.003a.6873.6873 0 0 0-.116-.051l-.006-.002a1.0266 1.0266 0 0 0-.16-.043l-.007-.001a1.3487 1.3487 0 0 0-.218-.017h-.012.001-.011c-.121 0-.237.02-.346.057l.008-.002a.7602.7602 0 0 0-.266.156.7041.7041 0 0 0-.169.246c-.038.098-.061.211-.061.329s.022.232.063.336l-.002-.006c.04.093.101.178.181.249.074.068.164.121.265.156.115.034.237.047.359.039zm2.888-.032h.989v.225h-1.292v-1.976h.31l-.007 1.75zm2.019.225h-.31v-1.976h.31v1.976zm1.152-1.966c.018.009.034.021.047.036l1.324 1.489c-.001-.011-.001-.023-.001-.035s0-.025.001-.037v.002-1.472h.27v1.984h-.166c-.02 0-.04-.004-.058-.012h.001a.2036.2036 0 0 1-.049-.037l-1.323-1.488v1.536h-.259v-1.976h.161c.018 0 .036.003.052.01h-.001zm3.923-.009v.217h-1.098v.652h.89v.21h-.89v.674h1.098v.217h-1.417v-1.971h1.417zM11.286 4.616l13.757 3.372v11.818l-13.757-3.371V4.616zm-.882-1.007V17.01l15.52 3.806V7.417L10.404 3.61z" />
			<path d="M18.722 27.036 3.2 23.227V9.828l15.522 3.807v13.401z" />
			<path
				d="m10.661 4.465 13.578 3.33-5.774 4.987L4.885 9.45l5.776-4.985zm-.257-.856L3.2 9.828l15.522 3.807 7.202-6.219-15.52-3.807zm9.191 22.673 6.329-5.465-6.329-1.553v7.018z" />
		</symbol>
		<symbol id="icon-smartphone" viewBox="0 0 20 32">
			<path
				d="M17 0H3C1.346 0 0 1.346 0 3v26c0 1.654 1.346 3 3 3h14c1.654 0 3-1.346 3-3V3c0-1.654-1.346-3-3-3zM3 2h14c.552 0 1 .448 1 1v21H2V3c0-.552.448-1 1-1zm14 28H3c-.552 0-1-.448-1-1v-3h16v3c0 .552-.448 1-1 1z" />
			<path fill="#757575" style="fill:var(--color3, #757575)"
				d="M4.707 27.478c.391.365.391.956 0 1.321s-1.024.365-1.414 0c-.391-.365-.391-.956 0-1.321s1.024-.365 1.414 0z" />
		</symbol>
		<symbol id="icon-twitter" viewBox="0 0 32 32">
			<path
				d="M32 6.078c-1.19.522-2.458.868-3.78 1.036 1.36-.812 2.398-2.088 2.886-3.626-1.268.756-2.668 1.29-4.16 1.588C25.742 3.794 24.026 3 22.154 3c-3.632 0-6.556 2.948-6.556 6.562 0 .52.044 1.02.152 1.496-5.454-.266-10.28-2.88-13.522-6.862-.566.982-.898 2.106-.898 3.316 0 2.272 1.17 4.286 2.914 5.452-1.054-.02-2.088-.326-2.964-.808v.072c0 3.188 2.274 5.836 5.256 6.446-.534.146-1.116.216-1.72.216-.42 0-.844-.024-1.242-.112.85 2.598 3.262 4.508 6.13 4.57-2.232 1.746-5.066 2.798-8.134 2.798-.538 0-1.054-.024-1.57-.09C2.906 27.93 6.35 29 10.064 29c12.072 0 18.672-10 18.672-18.668 0-.29-.01-.57-.024-.848C30.014 8.56 31.108 7.406 32 6.078z" />
		</symbol>
		<symbol id="icon-close" viewBox="0 0 32 32">
			<path
				d="m26.667 7.303-1.97-1.97-7.808 7.808-7.808-7.808-1.97 1.97 7.808 7.808-7.808 7.808 1.97 1.97 7.808-7.808 7.808 7.808 1.97-1.97-7.808-7.808 7.808-7.808z" />
		</symbol>
		<symbol id="icon-email-form" viewBox="0 0 32 32">
			<path
				d="M26.667 5.333H5.334c-1.467 0-2.653 1.2-2.653 2.667l-.013 16c0 1.467 1.2 2.667 2.667 2.667h21.333c1.467 0 2.667-1.2 2.667-2.667V8c0-1.467-1.2-2.667-2.667-2.667zM26.133 11l-9.427 5.893c-.427.267-.987.267-1.413 0L5.866 11c-.333-.213-.533-.573-.533-.96 0-.893.973-1.427 1.733-.96l8.933 5.587 8.933-5.587c.76-.467 1.733.067 1.733.96 0 .387-.2.747-.533.96z" />
		</symbol>
		<symbol id="icon-send" viewBox="0 0 32 32">
			<path d="M32 0 0 18l10.227 3.788L26 7 14.002 23.186l.01.004-.012-.004V32l5.735-6.691L27 28l5-28z" />
		</symbol>
		<symbol id="icon-person-form" viewBox="0 0 32 32">
			<path
				d="M16 16c2.947 0 5.333-2.387 5.333-5.333S18.946 5.334 16 5.334s-5.333 2.387-5.333 5.333S13.054 16 16 16zm0 2.667c-3.56 0-10.667 1.787-10.667 5.333v1.333c0 .733.6 1.333 1.333 1.333h18.667c.733 0 1.333-.6 1.333-1.333V24c0-3.547-7.107-5.333-10.667-5.333z" />
		</symbol>
		<symbol id="icon-phone-form" viewBox="0 0 32 32">
			<path
				d="m24.882 19.773-3.268-.373c-.09-.011-.193-.017-.299-.017-.708 0-1.348.287-1.812.751l-2.367 2.367c-3.641-1.853-6.626-4.825-8.478-8.478l2.38-2.38c.464-.464.751-1.104.751-1.812 0-.105-.006-.209-.019-.311l.001.012-.373-3.242c-.154-1.288-1.24-2.277-2.558-2.277H6.611c-1.454 0-2.663 1.209-2.573 2.663.682 10.987 9.469 19.761 20.443 20.443 1.454.09 2.663-1.119 2.663-2.573V22.32c.013-1.3-.965-2.393-2.264-2.547z" />
		</symbol>
		<symbol id="icon-checkbox" viewBox="0 0 34 32">
			<path fill="#fff" style="fill:var(--color1, #fff);stroke:var(--color1, #fff)" stroke="#fff"
				stroke-width=".4267"
				d="m8.442 16.537-.147-.14-2.205 2.088 7.767 7.41 16.318-15.567-2.19-2.089-14.128 13.465-5.416-5.167z" />
		</symbol>
	</defs>
</svg>